<svg width="141" height="47" viewBox="0 0 141 47" fill="none" xmlns="http://www.w3.org/2000/svg">
<mask id="mask0_10_386" style="mask-type:luminance" maskUnits="userSpaceOnUse" x="0" y="15" width="45" height="29">
<path d="M0.533325 15.2771H44.4437V43.3104H0.533325V15.2771Z" fill="white"/>
</mask>
<g mask="url(#mask0_10_386)">
<mask id="mask1_10_386" style="mask-type:luminance" maskUnits="userSpaceOnUse" x="0" y="0" width="45" height="44">
<path d="M0.533325 22C0.533325 33.7791 10.0812 43.3271 21.8604 43.3271H23.1229C34.9021 43.3271 44.45 33.7791 44.45 22C44.45 10.2208 34.9021 0.672897 23.1229 0.672897H21.8604C10.0812 0.672897 0.533325 10.2208 0.533325 22Z" fill="white"/>
</mask>
<g mask="url(#mask1_10_386)">
<path d="M42.4708 41.2354H32.4729V21.3104C33.2083 20.675 33.8979 20.0146 34.4583 19.3041C35.4292 20.5333 36.7854 21.6187 38.1146 22.6791C40.1208 24.2833 42.4708 25.7479 42.4708 27.7437V41.2354ZM2.50624 41.2354V27.7437C2.50624 25.9687 4.85416 24.2833 6.86041 22.6791C8.18958 21.6187 9.54583 20.5333 10.5167 19.3041C11.0771 20.0146 11.7646 20.675 12.5042 21.3104V41.2354H2.50624ZM34.4583 15.3062C34.2583 16.4458 33.4937 17.4771 32.4729 18.4646C31.8812 19.0354 31.2042 19.5916 30.5 20.1458C27.7042 22.3416 24.4729 24.5 24.4729 27.3875V41.2354H20.5021V27.3875C20.5021 24.4312 17.2708 22.2854 14.475 20.1104C13.7708 19.5625 13.0937 19.0125 12.5042 18.4479C11.4812 17.4708 10.7187 16.4458 10.5167 15.3062C9.73958 19.7187 0.533325 22.5125 0.533325 27.3875V43.3104H14.475V22.9187C16.4083 24.4291 18.5292 25.8479 18.5292 27.7437V43.3104H26.4458V27.7437C26.4458 26.0583 28.5667 24.4521 30.5 22.9208V41.2354H30.5062V43.3104H44.4437V27.3875C44.4437 22.3937 35.2354 19.7187 34.4583 15.3062Z" fill="#FFB016"/>
</g>
</g>
<mask id="mask2_10_386" style="mask-type:luminance" maskUnits="userSpaceOnUse" x="12" y="0" width="21" height="20">
<path d="M12.1333 0.672913H32.9333V19.6H12.1333V0.672913Z" fill="white"/>
</mask>
<g mask="url(#mask2_10_386)">
<mask id="mask3_10_386" style="mask-type:luminance" maskUnits="userSpaceOnUse" x="0" y="0" width="45" height="44">
<path d="M0.533325 22C0.533325 33.7792 10.0812 43.3271 21.8604 43.3271H23.1229C34.9021 43.3271 44.45 33.7792 44.45 22C44.45 10.2208 34.9021 0.672913 23.1229 0.672913H21.8604C10.0812 0.672913 0.533325 10.2208 0.533325 22Z" fill="white"/>
</mask>
<g mask="url(#mask3_10_386)">
<path d="M14.475 13.1229C14.475 11.3479 16.825 9.66041 18.8312 8.05833C20.1604 6.99583 21.5167 5.91249 22.4875 4.68333C23.4583 5.91249 24.8146 6.99583 26.1437 8.05833C28.15 9.66041 30.5 11.1271 30.5 13.1229V19.2375C31.2042 18.6833 31.8812 18.1271 32.4729 17.5562V12.7667C32.4729 7.77291 23.2646 5.09583 22.4875 0.68541C21.7104 5.09583 12.5042 7.89166 12.5042 12.7667V17.5396C13.0937 18.1042 13.7708 18.6542 14.475 19.2021V13.1229Z" fill="#FFB016"/>
</g>
</g>
<path d="M53.4148 38.1595H49.2648C49.3919 38.0429 49.4919 37.8241 49.5648 37.5012C49.6356 37.1741 49.6835 36.797 49.7064 36.3679C49.7335 35.9345 49.7523 35.497 49.7648 35.0512C49.7752 34.6012 49.7773 34.1908 49.7731 33.8179C49.7669 33.447 49.7648 33.1595 49.7648 32.9595V23.3595C49.7648 23.1554 49.7669 22.8658 49.7731 22.4929C49.7773 22.122 49.7752 21.7137 49.7648 21.2679C49.7523 20.8179 49.7335 20.3804 49.7064 19.9512C49.6835 19.5179 49.6356 19.1408 49.5648 18.8179C49.4919 18.4908 49.3919 18.2679 49.2648 18.1512H53.0648C54.0148 18.1512 54.8898 18.3345 55.6898 18.7012C56.4898 19.0679 57.1314 19.6491 57.6148 20.4429C58.1023 21.2325 58.3481 22.2595 58.3481 23.5262C58.3481 24.3991 58.2064 25.147 57.9231 25.7679C57.6439 26.3908 57.3106 26.8658 56.9231 27.1929C56.5398 27.5158 56.1939 27.6762 55.8898 27.6762C56.5939 27.6762 57.1814 27.8991 57.6481 28.3429C58.1148 28.7825 58.4669 29.3595 58.7064 30.0762C58.9502 30.7929 59.0731 31.5554 59.0731 32.3595C59.0731 32.6429 59.0502 33.022 59.0064 33.4929C58.9606 33.9658 58.8481 34.472 58.6648 35.0095C58.4814 35.5491 58.1856 36.0595 57.7814 36.5429C57.3752 37.022 56.8189 37.4095 56.1148 37.7095C55.4148 38.0095 54.5148 38.1595 53.4148 38.1595ZM52.9898 29.3262V35.3762C53.1169 35.3762 53.2314 35.3762 53.3314 35.3762C53.4356 35.3762 53.5398 35.3762 53.6398 35.3762C54.1398 35.3762 54.5564 35.2387 54.8898 34.9595C55.2231 34.6762 55.4731 34.3075 55.6398 33.8512C55.8064 33.397 55.8898 32.9137 55.8898 32.4012C55.8898 31.3408 55.6752 30.5637 55.2481 30.0679C54.8189 29.5741 54.2835 29.3262 53.6398 29.3262H52.9898ZM53.1648 20.9012H52.9898V26.5429H53.1231C53.6502 26.5429 54.0606 26.4054 54.3564 26.1262C54.6502 25.8429 54.8564 25.4741 54.9731 25.0179C55.0939 24.5637 55.1564 24.0804 55.1564 23.5679C55.1564 23.147 55.0939 22.7304 54.9731 22.3179C54.8564 21.9075 54.6523 21.5679 54.3648 21.3012C54.0752 21.0345 53.6752 20.9012 53.1648 20.9012Z" fill="white"/>
<path d="M61.2064 31.5012V24.8179C61.2064 23.9741 61.2252 23.2679 61.2648 22.7012C61.3023 22.1304 61.3773 21.6345 61.4898 21.2179C61.6064 20.8012 61.7856 20.3929 62.0314 19.9929C62.3918 19.4054 62.8898 18.9179 63.5231 18.5345C64.1564 18.1512 64.9398 17.9595 65.8731 17.9595C66.8231 17.9595 67.6148 18.1512 68.2481 18.5345C68.8814 18.9179 69.3689 19.4054 69.7148 19.9929C69.9585 20.3929 70.1356 20.8012 70.2481 21.2179C70.3648 21.6345 70.4418 22.1304 70.4814 22.7012C70.5189 23.2679 70.5398 23.9741 70.5398 24.8179V31.5012C70.5398 32.347 70.5189 33.0491 70.4814 33.6095C70.4418 34.172 70.3648 34.6595 70.2481 35.0762C70.1356 35.4929 69.9585 35.9075 69.7148 36.3179C69.3523 36.9075 68.8585 37.3929 68.2314 37.7762C67.6085 38.1595 66.8231 38.3512 65.8731 38.3512C64.9398 38.3512 64.1564 38.1595 63.5231 37.7762C62.8898 37.3929 62.3918 36.9075 62.0314 36.3179C61.7856 35.9075 61.6064 35.4929 61.4898 35.0762C61.3773 34.6595 61.3023 34.172 61.2648 33.6095C61.2252 33.0491 61.2064 32.347 61.2064 31.5012ZM64.4148 23.8179V32.4929C64.4148 32.8054 64.4252 33.1325 64.4481 33.4762C64.4752 33.822 64.5314 34.1491 64.6148 34.4595C64.6981 34.7658 64.8398 35.0158 65.0398 35.2095C65.2398 35.3991 65.5106 35.4929 65.8564 35.4929C66.2002 35.4929 66.4752 35.3991 66.6814 35.2095C66.8856 35.0158 67.0335 34.7658 67.1231 34.4595C67.2106 34.1491 67.2668 33.822 67.2898 33.4762C67.3168 33.1325 67.3314 32.8054 67.3314 32.4929V23.8179C67.3314 23.5137 67.3168 23.1887 67.2898 22.8429C67.2668 22.4929 67.2106 22.1658 67.1231 21.8595C67.0335 21.5554 66.8856 21.3054 66.6814 21.1095C66.4752 20.9158 66.2002 20.8179 65.8564 20.8179C65.5106 20.8179 65.2398 20.9158 65.0398 21.1095C64.8398 21.3054 64.6981 21.5554 64.6148 21.8595C64.5314 22.1658 64.4752 22.4929 64.4481 22.8429C64.4252 23.1887 64.4148 23.5137 64.4148 23.8179Z" fill="white"/>
<path d="M72.8999 18.1512H76.6416L80.0249 30.9012C80.0249 30.9012 80.0249 30.7429 80.0249 30.4262C80.0249 30.1054 80.027 29.6846 80.0332 29.1679C80.0374 28.6471 80.0416 28.0887 80.0416 27.4929C80.0416 26.8991 80.0437 26.3158 80.0499 25.7429C80.0603 25.1658 80.0666 24.6637 80.0666 24.2346C80.0666 23.8012 80.0666 23.5012 80.0666 23.3346C80.0666 23.1304 80.0666 22.8429 80.0666 22.4762C80.0666 22.1054 80.0603 21.6971 80.0499 21.2512C80.0437 20.8012 80.0249 20.3637 79.9916 19.9346C79.9624 19.5012 79.9124 19.1241 79.8416 18.8012C79.7687 18.4741 79.677 18.2512 79.5666 18.1346L83.7499 18.1512C83.6332 18.2679 83.5374 18.4908 83.4666 18.8179C83.3999 19.1408 83.3499 19.5179 83.3166 19.9512C83.2832 20.3804 83.2624 20.8179 83.2582 21.2679C83.252 21.7137 83.2499 22.1221 83.2499 22.4929C83.2499 22.8658 83.2499 23.1554 83.2499 23.3596V32.9596C83.2499 33.1596 83.2499 33.4471 83.2499 33.8179C83.2499 34.1908 83.252 34.6012 83.2582 35.0512C83.2624 35.4971 83.2832 35.9346 83.3166 36.3679C83.3499 36.7971 83.3999 37.1741 83.4666 37.5012C83.5374 37.8241 83.6332 38.0429 83.7499 38.1596H79.9666L76.5832 26.0846C76.5832 26.0846 76.5832 26.2304 76.5832 26.5179C76.5832 26.8012 76.5832 27.1741 76.5832 27.6346C76.5832 28.0971 76.5853 28.5991 76.5916 29.1429C76.602 29.6887 76.6082 30.2221 76.6082 30.7429C76.6082 31.2596 76.6082 31.7179 76.6082 32.1179C76.6082 32.5137 76.6082 32.7929 76.6082 32.9596C76.6082 33.1596 76.602 33.4471 76.5916 33.8179C76.5853 34.1908 76.5853 34.6012 76.5916 35.0512C76.602 35.4971 76.6207 35.9346 76.6499 36.3679C76.6832 36.7971 76.7353 37.1741 76.8082 37.5012C76.8791 37.8241 76.9707 38.0429 77.0832 38.1596H72.9166C73.0332 38.0429 73.127 37.8241 73.1999 37.5012C73.2707 37.1741 73.3207 36.7971 73.3499 36.3679C73.3832 35.9346 73.402 35.4971 73.4082 35.0512C73.4124 34.6012 73.4124 34.1908 73.4082 33.8179C73.402 33.4471 73.3999 33.1596 73.3999 32.9596V23.3596C73.3999 23.1554 73.402 22.8658 73.4082 22.4929C73.4124 22.1221 73.4103 21.7137 73.3999 21.2679C73.3874 20.8179 73.3687 20.3804 73.3416 19.9512C73.3187 19.5179 73.2707 19.1408 73.1999 18.8179C73.127 18.4908 73.027 18.2679 72.8999 18.1512Z" fill="white"/>
<path d="M89.8564 38.1595H85.7064C85.8335 38.0429 85.9335 37.8241 86.0064 37.5012C86.0773 37.1741 86.1252 36.797 86.1481 36.3679C86.1752 35.9345 86.1939 35.497 86.2064 35.0512C86.2168 34.6012 86.2189 34.1908 86.2148 33.8179C86.2085 33.447 86.2064 33.1595 86.2064 32.9595V23.3595C86.2064 23.1554 86.2085 22.8658 86.2148 22.4929C86.2189 22.122 86.2168 21.7137 86.2064 21.2679C86.1939 20.8179 86.1752 20.3804 86.1481 19.9512C86.1252 19.5179 86.0773 19.1408 86.0064 18.8179C85.9335 18.4908 85.8335 18.2679 85.7064 18.1512H89.5064C90.4564 18.1512 91.3314 18.3345 92.1314 18.7012C92.9314 19.0679 93.5731 19.6491 94.0564 20.4429C94.5439 21.2325 94.7898 22.2595 94.7898 23.5262C94.7898 24.3991 94.6481 25.147 94.3648 25.7679C94.0856 26.3908 93.7523 26.8658 93.3648 27.1929C92.9814 27.5158 92.6356 27.6762 92.3314 27.6762C93.0356 27.6762 93.6231 27.8991 94.0898 28.3429C94.5564 28.7825 94.9085 29.3595 95.1481 30.0762C95.3918 30.7929 95.5148 31.5554 95.5148 32.3595C95.5148 32.6429 95.4918 33.022 95.4481 33.4929C95.4023 33.9658 95.2898 34.472 95.1064 35.0095C94.9231 35.5491 94.6273 36.0595 94.2231 36.5429C93.8168 37.022 93.2606 37.4095 92.5564 37.7095C91.8564 38.0095 90.9564 38.1595 89.8564 38.1595ZM89.4314 29.3262V35.3762C89.5585 35.3762 89.6731 35.3762 89.7731 35.3762C89.8773 35.3762 89.9814 35.3762 90.0814 35.3762C90.5814 35.3762 90.9981 35.2387 91.3314 34.9595C91.6648 34.6762 91.9148 34.3075 92.0814 33.8512C92.2481 33.397 92.3314 32.9137 92.3314 32.4012C92.3314 31.3408 92.1168 30.5637 91.6898 30.0679C91.2606 29.5741 90.7252 29.3262 90.0814 29.3262H89.4314ZM89.6064 20.9012H89.4314V26.5429H89.5648C90.0918 26.5429 90.5023 26.4054 90.7981 26.1262C91.0918 25.8429 91.2981 25.4741 91.4148 25.0179C91.5356 24.5637 91.5981 24.0804 91.5981 23.5679C91.5981 23.147 91.5356 22.7304 91.4148 22.3179C91.2981 21.9075 91.0939 21.5679 90.8064 21.3012C90.5168 21.0345 90.1168 20.9012 89.6064 20.9012Z" fill="white"/>
<path d="M101.665 38.1595H96.9982C97.2023 37.7762 97.3836 37.2887 97.5398 36.6929C97.7003 36.0991 97.844 35.4845 97.9732 34.8512C98.1003 34.2179 98.2023 33.6575 98.2815 33.1679C98.5357 31.7075 98.7732 30.3637 98.9898 29.1345C99.2107 27.9075 99.4273 26.722 99.6398 25.5762C99.8503 24.4325 100.065 23.2575 100.282 22.0512C100.498 20.847 100.727 19.547 100.973 18.1512H104.965C105.209 19.547 105.436 20.847 105.648 22.0512C105.859 23.2575 106.067 24.4325 106.273 25.5762C106.477 26.722 106.692 27.9075 106.915 29.1345C107.136 30.3637 107.384 31.7075 107.657 33.1679C107.744 33.6575 107.848 34.2179 107.965 34.8512C108.086 35.4845 108.232 36.0991 108.398 36.6929C108.565 37.2887 108.744 37.7762 108.94 38.1595H104.273C104.45 37.7262 104.548 37.2595 104.565 36.7595C104.586 36.2595 104.573 35.7512 104.523 35.2345C104.473 34.7137 104.415 34.222 104.348 33.7595H101.59C101.534 34.222 101.477 34.7137 101.423 35.2345C101.367 35.7512 101.348 36.2595 101.365 36.7595C101.382 37.2595 101.482 37.7262 101.665 38.1595ZM101.932 31.0012H104.007L102.965 22.5095L101.932 31.0012Z" fill="white"/>
<path d="M115.028 38.1595H110.361C110.565 37.7762 110.747 37.2887 110.903 36.6929C111.063 36.0991 111.207 35.4845 111.336 34.8512C111.463 34.2179 111.565 33.6575 111.645 33.1679C111.899 31.7075 112.136 30.3637 112.353 29.1345C112.574 27.9075 112.79 26.722 113.003 25.5762C113.213 24.4325 113.428 23.2575 113.645 22.0512C113.861 20.847 114.09 19.547 114.336 18.1512H118.328C118.572 19.547 118.799 20.847 119.011 22.0512C119.222 23.2575 119.43 24.4325 119.636 25.5762C119.84 26.722 120.055 27.9075 120.278 29.1345C120.499 30.3637 120.747 31.7075 121.02 33.1679C121.107 33.6575 121.211 34.2179 121.328 34.8512C121.449 35.4845 121.595 36.0991 121.761 36.6929C121.928 37.2887 122.107 37.7762 122.303 38.1595H117.636C117.813 37.7262 117.911 37.2595 117.928 36.7595C117.949 36.2595 117.936 35.7512 117.886 35.2345C117.836 34.7137 117.778 34.222 117.711 33.7595H114.953C114.897 34.222 114.84 34.7137 114.786 35.2345C114.73 35.7512 114.711 36.2595 114.728 36.7595C114.745 37.2595 114.845 37.7262 115.028 38.1595ZM115.295 31.0012H117.37L116.328 22.5095L115.295 31.0012Z" fill="white"/>
<path d="M123.991 18.1512H127.733L131.116 30.9012C131.116 30.9012 131.116 30.7429 131.116 30.4262C131.116 30.1054 131.118 29.6846 131.125 29.1679C131.129 28.6471 131.133 28.0887 131.133 27.4929C131.133 26.8991 131.135 26.3158 131.141 25.7429C131.152 25.1658 131.158 24.6637 131.158 24.2346C131.158 23.8012 131.158 23.5012 131.158 23.3346C131.158 23.1304 131.158 22.8429 131.158 22.4762C131.158 22.1054 131.152 21.6971 131.141 21.2512C131.135 20.8012 131.116 20.3637 131.083 19.9346C131.054 19.5012 131.004 19.1241 130.933 18.8012C130.86 18.4741 130.768 18.2512 130.658 18.1346L134.841 18.1512C134.725 18.2679 134.629 18.4908 134.558 18.8179C134.491 19.1408 134.441 19.5179 134.408 19.9512C134.375 20.3804 134.354 20.8179 134.35 21.2679C134.343 21.7137 134.341 22.1221 134.341 22.4929C134.341 22.8658 134.341 23.1554 134.341 23.3596V32.9596C134.341 33.1596 134.341 33.4471 134.341 33.8179C134.341 34.1908 134.343 34.6012 134.35 35.0512C134.354 35.4971 134.375 35.9346 134.408 36.3679C134.441 36.7971 134.491 37.1741 134.558 37.5012C134.629 37.8241 134.725 38.0429 134.841 38.1596H131.058L127.675 26.0846C127.675 26.0846 127.675 26.2304 127.675 26.5179C127.675 26.8012 127.675 27.1741 127.675 27.6346C127.675 28.0971 127.677 28.5991 127.683 29.1429C127.693 29.6887 127.7 30.2221 127.7 30.7429C127.7 31.2596 127.7 31.7179 127.7 32.1179C127.7 32.5137 127.7 32.7929 127.7 32.9596C127.7 33.1596 127.693 33.4471 127.683 33.8179C127.677 34.1908 127.677 34.6012 127.683 35.0512C127.693 35.4971 127.712 35.9346 127.741 36.3679C127.775 36.7971 127.827 37.1741 127.9 37.5012C127.97 37.8241 128.062 38.0429 128.175 38.1596H124.008C124.125 38.0429 124.218 37.8241 124.291 37.5012C124.362 37.1741 124.412 36.7971 124.441 36.3679C124.475 35.9346 124.493 35.4971 124.5 35.0512C124.504 34.6012 124.504 34.1908 124.5 33.8179C124.493 33.4471 124.491 33.1596 124.491 32.9596V23.3596C124.491 23.1554 124.493 22.8658 124.5 22.4929C124.504 22.1221 124.502 21.7137 124.491 21.2679C124.479 20.8179 124.46 20.3804 124.433 19.9512C124.41 19.5179 124.362 19.1408 124.291 18.8179C124.218 18.4908 124.118 18.2679 123.991 18.1512Z" fill="white"/>
<path d="M48.2875 42.7271H135.567" stroke="#FFB016" stroke-width="3"/>
<path d="M138.867 42.7271L137.067 40.9271L135.267 42.7271L137.067 44.5271L138.867 42.7271Z" stroke="#FFB016" stroke-width="3" stroke-linecap="round" stroke-linejoin="round"/>
</svg>
