<svg width="86" height="88" viewBox="0 0 86 88" fill="none" xmlns="http://www.w3.org/2000/svg">
<mask id="mask0_10_388" style="mask-type:luminance" maskUnits="userSpaceOnUse" x="10" y="21" width="66" height="43">
<path d="M10.4958 21.8938H75.4979V63.3917H10.4958V21.8938Z" fill="white"/>
</mask>
<g mask="url(#mask0_10_388)">
<mask id="mask1_10_388" style="mask-type:luminance" maskUnits="userSpaceOnUse" x="10" y="0" width="66" height="64">
<path d="M10.4958 31.8438C10.4958 40.2167 13.8208 48.2458 19.7417 54.1667C25.6625 60.0875 33.6917 63.4146 42.0646 63.4146H43.9354C52.3084 63.4146 60.3375 60.0875 66.2584 54.1667C72.1792 48.2458 75.5042 40.2167 75.5042 31.8438C75.5042 23.4708 72.1792 15.4396 66.2584 9.52084C60.3375 3.6 52.3084 0.272919 43.9354 0.272919H42.0646C33.6917 0.272919 25.6625 3.6 19.7417 9.52084C13.8208 15.4396 10.4958 23.4708 10.4958 31.8438Z" fill="white"/>
</mask>
<g mask="url(#mask1_10_388)">
<path d="M72.5771 60.3208H57.7771V30.8271C58.8688 29.8854 59.8875 28.9063 60.7167 27.8563C62.1542 29.675 64.1625 31.2813 66.1313 32.8521C69.1 35.225 72.5771 37.3938 72.5771 40.3479V60.3208ZM13.4167 60.3208V40.3479C13.4167 37.7208 16.8938 35.225 19.8625 32.8521C21.8313 31.2813 23.8396 29.675 25.275 27.8563C26.1042 28.9063 27.1229 29.8854 28.2167 30.8271V60.3208H13.4167ZM60.7167 21.9375C60.4209 23.625 59.2896 25.1521 57.7771 26.6125C56.9021 27.4583 55.9 28.2813 54.8563 29.1021C50.7188 32.3521 45.9375 35.5479 45.9375 39.8229V60.3208H40.0563V39.8229C40.0563 35.4438 35.275 32.2688 31.1354 29.05C30.0938 28.2375 29.0896 27.425 28.2167 26.5875C26.7042 25.1396 25.5729 23.625 25.275 21.9375C24.125 28.4667 10.4958 32.6042 10.4958 39.8229V63.3917H31.1354V33.2063C33.9959 35.4438 37.1354 37.5417 37.1354 40.3479V63.3917H48.8584V40.3479C48.8584 37.8521 51.9959 35.475 54.8563 33.2083V60.3208H54.8667V63.3917H75.4979V39.8229C75.4979 32.4292 61.8688 28.4667 60.7167 21.9375Z" fill="#FFB016"/>
</g>
</g>
<mask id="mask2_10_388" style="mask-type:luminance" maskUnits="userSpaceOnUse" x="27" y="0" width="32" height="29">
<path d="M27.8 0.272919H58.2V28.1333H27.8V0.272919Z" fill="white"/>
</mask>
<g mask="url(#mask2_10_388)">
<mask id="mask3_10_388" style="mask-type:luminance" maskUnits="userSpaceOnUse" x="10" y="0" width="66" height="64">
<path d="M10.4958 31.8438C10.4958 40.2167 13.8208 48.2458 19.7416 54.1667C25.6625 60.0875 33.6916 63.4146 42.0645 63.4146H43.9354C52.3083 63.4146 60.3375 60.0875 66.2583 54.1667C72.1791 48.2458 75.5041 40.2167 75.5041 31.8438C75.5041 23.4708 72.1791 15.4396 66.2583 9.52084C60.3375 3.6 52.3083 0.272919 43.9354 0.272919H42.0645C33.6916 0.272919 25.6625 3.6 19.7416 9.52084C13.8208 15.4396 10.4958 23.4708 10.4958 31.8438Z" fill="white"/>
</mask>
<g mask="url(#mask3_10_388)">
<path d="M31.1354 18.7021C31.1354 16.075 34.6145 13.5792 37.5833 11.2083C39.552 9.63542 41.5604 8.03125 42.9958 6.21042C44.4333 8.03125 46.4416 9.63542 48.4083 11.2083C51.3791 13.5792 54.8562 15.7479 54.8562 18.7021V27.7562C55.8999 26.9375 56.902 26.1146 57.777 25.2687V18.1771C57.777 10.7833 44.1479 6.82292 42.9958 0.293751C41.8458 6.82292 28.2166 10.9604 28.2166 18.1771V25.2417C29.0895 26.0792 30.0937 26.8937 31.1354 27.7042V18.7021Z" fill="#FFB016"/>
</g>
</g>
<path d="M4.36147 87.1775H0.6698C0.786466 87.0775 0.873967 86.8837 0.936466 86.5942C0.996883 86.3004 1.03855 85.965 1.06147 85.5858C1.08855 85.2025 1.1073 84.815 1.1198 84.4192C1.13022 84.0192 1.1323 83.6567 1.12813 83.3275C1.12188 82.9942 1.1198 82.7358 1.1198 82.5525V74.0192C1.1198 73.8358 1.12188 73.5817 1.12813 73.2525C1.1323 72.9192 1.13022 72.5567 1.1198 72.1608C1.1073 71.7608 1.08855 71.3733 1.06147 70.9942C1.03855 70.6108 0.996883 70.2754 0.936466 69.9858C0.873967 69.6921 0.786466 69.4942 0.6698 69.3942H4.05313C4.89063 69.3942 5.66563 69.5587 6.37813 69.8858C7.08855 70.2087 7.66147 70.7233 8.0948 71.4275C8.52813 72.1337 8.7448 73.0483 8.7448 74.1692C8.7448 74.9483 8.6198 75.6108 8.3698 76.1608C8.1198 76.7108 7.82188 77.1337 7.47813 77.4275C7.13855 77.7171 6.8323 77.8608 6.56147 77.8608C7.18855 77.8608 7.7073 78.0587 8.1198 78.4525C8.53647 78.8421 8.85313 79.3567 9.0698 79.9942C9.28647 80.6275 9.3948 81.3067 9.3948 82.0275C9.3948 82.2775 9.37397 82.615 9.33647 83.0358C9.29688 83.4525 9.1948 83.9004 9.02813 84.3775C8.86147 84.8567 8.59688 85.3087 8.23647 85.7358C7.88022 86.165 7.38855 86.5108 6.76147 86.7775C6.13855 87.0442 5.33855 87.1775 4.36147 87.1775ZM3.98647 79.3275V84.7025C4.09688 84.7025 4.19688 84.7025 4.28647 84.7025C4.38022 84.7025 4.47188 84.7025 4.56147 84.7025C5.00522 84.7025 5.37397 84.5775 5.6698 84.3275C5.9698 84.0775 6.19063 83.7525 6.33647 83.3525C6.48647 82.9483 6.56147 82.5171 6.56147 82.0608C6.56147 81.1171 6.3698 80.4254 5.98647 79.9858C5.6073 79.5483 5.1323 79.3275 4.56147 79.3275H3.98647ZM4.13647 71.8358H3.98647V76.8525H4.10313C4.5698 76.8525 4.9323 76.7275 5.1948 76.4775C5.45522 76.2275 5.63855 75.9004 5.7448 75.4942C5.85522 75.09 5.91147 74.6608 5.91147 74.2108C5.91147 73.8337 5.85522 73.465 5.7448 73.1025C5.63855 72.7358 5.4573 72.4337 5.20313 72.1942C4.94688 71.9567 4.59063 71.8358 4.13647 71.8358Z" fill="#5E17EB"/>
<path d="M12.7169 81.2525V75.3192C12.7169 74.565 12.7335 73.9337 12.7669 73.4275C12.8044 72.9233 12.8752 72.4858 12.9752 72.1192C13.0794 71.7483 13.2377 71.3858 13.4502 71.0358C13.771 70.5087 14.2127 70.0754 14.7752 69.7358C15.3419 69.3921 16.0377 69.2192 16.8669 69.2192C17.7106 69.2192 18.4127 69.3921 18.9752 69.7358C19.5356 70.0754 19.971 70.5087 20.2835 71.0358C20.5002 71.3858 20.6585 71.7483 20.7585 72.1192C20.8585 72.4858 20.9252 72.9233 20.9585 73.4275C20.996 73.9337 21.0169 74.565 21.0169 75.3192V81.2525C21.0169 82.0087 20.996 82.6358 20.9585 83.1358C20.9252 83.6358 20.8585 84.0733 20.7585 84.4442C20.6585 84.8108 20.5002 85.1754 20.2835 85.5358C19.9606 86.065 19.521 86.4983 18.9669 86.8358C18.4106 87.1754 17.7106 87.3442 16.8669 87.3442C16.0377 87.3442 15.3419 87.1754 14.7752 86.8358C14.2127 86.4983 13.771 86.065 13.4502 85.5358C13.2377 85.1754 13.0794 84.8108 12.9752 84.4442C12.8752 84.0733 12.8044 83.6358 12.7669 83.1358C12.7335 82.6358 12.7169 82.0087 12.7169 81.2525ZM15.5669 74.4275V82.1442C15.5669 82.4171 15.5773 82.7087 15.6002 83.0192C15.6273 83.3254 15.6773 83.615 15.7502 83.8858C15.821 84.1587 15.946 84.3817 16.1252 84.5525C16.3023 84.7192 16.5439 84.8025 16.8502 84.8025C17.1544 84.8025 17.4002 84.7192 17.5835 84.5525C17.7669 84.3817 17.896 84.1587 17.9752 83.8858C18.0585 83.615 18.1106 83.3254 18.1335 83.0192C18.1544 82.7087 18.1669 82.4171 18.1669 82.1442V74.4275C18.1669 74.1567 18.1544 73.8671 18.1335 73.5608C18.1106 73.2504 18.0585 72.9587 17.9752 72.6858C17.896 72.415 17.7669 72.1942 17.5835 72.0275C17.4002 71.8567 17.1544 71.7692 16.8502 71.7692C16.5439 71.7692 16.3023 71.8567 16.1252 72.0275C15.946 72.1942 15.821 72.415 15.7502 72.6858C15.6773 72.9587 15.6273 73.2504 15.6002 73.5608C15.5773 73.8671 15.5669 74.1567 15.5669 74.4275Z" fill="#5E17EB"/>
<path d="M24.5413 69.3942H27.8746L30.8746 80.7275C30.8746 80.7275 30.8746 80.5858 30.8746 80.3025C30.8746 80.015 30.8767 79.6421 30.8829 79.1858C30.8871 78.7254 30.8913 78.2317 30.8913 77.7025C30.8913 77.1692 30.8933 76.6483 30.8996 76.1358C30.9038 75.6254 30.9079 75.1817 30.9079 74.8025C30.9079 74.4192 30.9079 74.1525 30.9079 74.0025C30.9079 73.8192 30.9079 73.565 30.9079 73.2358C30.9079 72.9025 30.9038 72.54 30.8996 72.1442C30.8933 71.7442 30.8767 71.3567 30.8496 70.9775C30.8204 70.5942 30.7767 70.2587 30.7163 69.9692C30.6538 69.6754 30.5704 69.4775 30.4663 69.3775L34.1913 69.3942C34.085 69.4942 34.0017 69.6921 33.9413 69.9858C33.8788 70.2754 33.8329 70.6108 33.7996 70.9942C33.7704 71.3733 33.7538 71.7608 33.7496 72.1608C33.7433 72.5567 33.7413 72.9192 33.7413 73.2525C33.7413 73.5817 33.7413 73.8358 33.7413 74.0192V82.5525C33.7413 82.7358 33.7413 82.9942 33.7413 83.3275C33.7413 83.6567 33.7433 84.0192 33.7496 84.4192C33.7538 84.815 33.7704 85.2025 33.7996 85.5858C33.8329 85.965 33.8788 86.3004 33.9413 86.5942C34.0017 86.8837 34.085 87.0775 34.1913 87.1775H30.8246L27.8246 76.4442C27.8246 76.4442 27.8246 76.5733 27.8246 76.8275C27.8246 77.0837 27.8246 77.4171 27.8246 77.8275C27.8246 78.2337 27.8267 78.6817 27.8329 79.1692C27.8371 79.6525 27.8413 80.1254 27.8413 80.5858C27.8413 81.0421 27.8413 81.4483 27.8413 81.8025C27.8413 82.1525 27.8413 82.4025 27.8413 82.5525C27.8413 82.7358 27.8371 82.9942 27.8329 83.3275C27.8267 83.6567 27.8267 84.0192 27.8329 84.4192C27.8371 84.815 27.8538 85.2025 27.8829 85.5858C27.91 85.965 27.9538 86.3004 28.0163 86.5942C28.0767 86.8837 28.16 87.0775 28.2663 87.1775H24.5579C24.6621 87.0775 24.7454 86.8837 24.8079 86.5942C24.8683 86.3004 24.9121 85.965 24.9413 85.5858C24.9746 85.2025 24.9933 84.815 24.9996 84.4192C25.0038 84.0192 25.0038 83.6567 24.9996 83.3275C24.9933 82.9942 24.9913 82.7358 24.9913 82.5525V74.0192C24.9913 73.8358 24.9933 73.5817 24.9996 73.2525C25.0038 72.9192 25.0017 72.5567 24.9913 72.1608C24.9788 71.7608 24.96 71.3733 24.9329 70.9942C24.91 70.6108 24.8683 70.2754 24.8079 69.9858C24.7454 69.6921 24.6579 69.4942 24.5413 69.3942Z" fill="#5E17EB"/>
<path d="M41.0474 87.1775H37.3557C37.4724 87.0775 37.5599 86.8837 37.6224 86.5942C37.6828 86.3004 37.7245 85.965 37.7474 85.5858C37.7745 85.2025 37.7932 84.815 37.8057 84.4192C37.8161 84.0192 37.8182 83.6567 37.814 83.3275C37.8078 82.9942 37.8057 82.7358 37.8057 82.5525V74.0192C37.8057 73.8358 37.8078 73.5817 37.814 73.2525C37.8182 72.9192 37.8161 72.5567 37.8057 72.1608C37.7932 71.7608 37.7745 71.3733 37.7474 70.9942C37.7245 70.6108 37.6828 70.2754 37.6224 69.9858C37.5599 69.6921 37.4724 69.4942 37.3557 69.3942H40.739C41.5765 69.3942 42.3515 69.5587 43.064 69.8858C43.7745 70.2087 44.3474 70.7233 44.7807 71.4275C45.214 72.1337 45.4307 73.0483 45.4307 74.1692C45.4307 74.9483 45.3057 75.6108 45.0557 76.1608C44.8057 76.7108 44.5078 77.1337 44.164 77.4275C43.8245 77.7171 43.5182 77.8608 43.2474 77.8608C43.8745 77.8608 44.3932 78.0587 44.8057 78.4525C45.2224 78.8421 45.539 79.3567 45.7557 79.9942C45.9724 80.6275 46.0807 81.3067 46.0807 82.0275C46.0807 82.2775 46.0599 82.615 46.0224 83.0358C45.9828 83.4525 45.8807 83.9004 45.714 84.3775C45.5474 84.8567 45.2828 85.3087 44.9224 85.7358C44.5661 86.165 44.0745 86.5108 43.4474 86.7775C42.8245 87.0442 42.0245 87.1775 41.0474 87.1775ZM40.6724 79.3275V84.7025C40.7828 84.7025 40.8828 84.7025 40.9724 84.7025C41.0661 84.7025 41.1578 84.7025 41.2474 84.7025C41.6911 84.7025 42.0599 84.5775 42.3557 84.3275C42.6557 84.0775 42.8765 83.7525 43.0224 83.3525C43.1724 82.9483 43.2474 82.5171 43.2474 82.0608C43.2474 81.1171 43.0557 80.4254 42.6724 79.9858C42.2932 79.5483 41.8182 79.3275 41.2474 79.3275H40.6724ZM40.8224 71.8358H40.6724V76.8525H40.789C41.2557 76.8525 41.6182 76.7275 41.8807 76.4775C42.1411 76.2275 42.3245 75.9004 42.4307 75.4942C42.5411 75.09 42.5974 74.6608 42.5974 74.2108C42.5974 73.8337 42.5411 73.465 42.4307 73.1025C42.3245 72.7358 42.1432 72.4337 41.889 72.1942C41.6328 71.9567 41.2765 71.8358 40.8224 71.8358Z" fill="#5E17EB"/>
<path d="M52.9694 87.1775H48.8278C49.0111 86.84 49.1715 86.4067 49.3111 85.8775C49.4548 85.3442 49.5819 84.7983 49.6944 84.2358C49.8111 83.6692 49.9028 83.1733 49.9694 82.7442C50.1965 81.4442 50.4069 80.2504 50.6028 79.1608C50.7965 78.0671 50.9861 77.0108 51.1694 75.9942C51.3569 74.9733 51.5486 73.9275 51.7444 72.8608C51.9382 71.79 52.1444 70.6337 52.3611 69.3942H55.9111C56.1278 70.6337 56.3278 71.79 56.5111 72.8608C56.6986 73.9275 56.8861 74.9733 57.0694 75.9942C57.2528 77.0108 57.4403 78.0671 57.6361 79.1608C57.8361 80.2504 58.0548 81.4442 58.2944 82.7442C58.3778 83.1733 58.4715 83.6692 58.5778 84.2358C58.6882 84.7983 58.8153 85.3442 58.9611 85.8775C59.1111 86.4067 59.2715 86.84 59.4444 87.1775H55.2944C55.4548 86.79 55.5444 86.3754 55.5611 85.9358C55.5778 85.4921 55.5611 85.04 55.5111 84.5775C55.4653 84.1171 55.4153 83.6817 55.3611 83.2692H52.9028C52.8569 83.6817 52.8111 84.1171 52.7611 84.5775C52.7111 85.04 52.6944 85.4921 52.7111 85.9358C52.7278 86.3754 52.8132 86.79 52.9694 87.1775ZM53.2111 80.8108H55.0528L54.1361 73.2692L53.2111 80.8108Z" fill="#5E17EB"/>
<path d="M66.2787 87.1775H62.137C62.3204 86.84 62.4808 86.4067 62.6204 85.8775C62.7641 85.3442 62.8912 84.7983 63.0037 84.2358C63.1204 83.6692 63.212 83.1733 63.2787 82.7442C63.5058 81.4442 63.7162 80.2504 63.912 79.1608C64.1058 78.0671 64.2954 77.0108 64.4787 75.9942C64.6662 74.9733 64.8579 73.9275 65.0537 72.8608C65.2474 71.79 65.4537 70.6337 65.6704 69.3942H69.2204C69.437 70.6337 69.637 71.79 69.8204 72.8608C70.0079 73.9275 70.1954 74.9733 70.3787 75.9942C70.562 77.0108 70.7495 78.0671 70.9454 79.1608C71.1454 80.2504 71.3641 81.4442 71.6037 82.7442C71.687 83.1733 71.7808 83.6692 71.887 84.2358C71.9974 84.7983 72.1245 85.3442 72.2704 85.8775C72.4204 86.4067 72.5808 86.84 72.7537 87.1775H68.6037C68.7641 86.79 68.8537 86.3754 68.8704 85.9358C68.887 85.4921 68.8704 85.04 68.8204 84.5775C68.7745 84.1171 68.7245 83.6817 68.6704 83.2692H66.212C66.1662 83.6817 66.1204 84.1171 66.0704 84.5775C66.0204 85.04 66.0037 85.4921 66.0204 85.9358C66.037 86.3754 66.1224 86.79 66.2787 87.1775ZM66.5204 80.8108H68.362L67.4454 73.2692L66.5204 80.8108Z" fill="#5E17EB"/>
<path d="M75.6796 69.3942H79.0129L82.0129 80.7275C82.0129 80.7275 82.0129 80.5858 82.0129 80.3025C82.0129 80.015 82.015 79.6421 82.0212 79.1858C82.0254 78.7254 82.0296 78.2317 82.0296 77.7025C82.0296 77.1692 82.0316 76.6483 82.0379 76.1358C82.0421 75.6254 82.0462 75.1817 82.0462 74.8025C82.0462 74.4192 82.0462 74.1525 82.0462 74.0025C82.0462 73.8192 82.0462 73.565 82.0462 73.2358C82.0462 72.9025 82.0421 72.54 82.0379 72.1442C82.0316 71.7442 82.015 71.3567 81.9879 70.9775C81.9587 70.5942 81.915 70.2587 81.8546 69.9692C81.7921 69.6754 81.7087 69.4775 81.6046 69.3775L85.3296 69.3942C85.2233 69.4942 85.14 69.6921 85.0796 69.9858C85.0171 70.2754 84.9712 70.6108 84.9379 70.9942C84.9087 71.3733 84.8921 71.7608 84.8879 72.1608C84.8816 72.5567 84.8796 72.9192 84.8796 73.2525C84.8796 73.5817 84.8796 73.8358 84.8796 74.0192V82.5525C84.8796 82.7358 84.8796 82.9942 84.8796 83.3275C84.8796 83.6567 84.8816 84.0192 84.8879 84.4192C84.8921 84.815 84.9087 85.2025 84.9379 85.5858C84.9712 85.965 85.0171 86.3004 85.0796 86.5942C85.14 86.8837 85.2233 87.0775 85.3296 87.1775H81.9629L78.9629 76.4442C78.9629 76.4442 78.9629 76.5733 78.9629 76.8275C78.9629 77.0837 78.9629 77.4171 78.9629 77.8275C78.9629 78.2337 78.965 78.6817 78.9712 79.1692C78.9754 79.6525 78.9796 80.1254 78.9796 80.5858C78.9796 81.0421 78.9796 81.4483 78.9796 81.8025C78.9796 82.1525 78.9796 82.4025 78.9796 82.5525C78.9796 82.7358 78.9754 82.9942 78.9712 83.3275C78.965 83.6567 78.965 84.0192 78.9712 84.4192C78.9754 84.815 78.9921 85.2025 79.0212 85.5858C79.0483 85.965 79.0921 86.3004 79.1546 86.5942C79.215 86.8837 79.2983 87.0775 79.4046 87.1775H75.6962C75.8004 87.0775 75.8837 86.8837 75.9462 86.5942C76.0066 86.3004 76.0504 85.965 76.0796 85.5858C76.1129 85.2025 76.1316 84.815 76.1379 84.4192C76.1421 84.0192 76.1421 83.6567 76.1379 83.3275C76.1316 82.9942 76.1296 82.7358 76.1296 82.5525V74.0192C76.1296 73.8358 76.1316 73.5817 76.1379 73.2525C76.1421 72.9192 76.14 72.5567 76.1296 72.1608C76.1171 71.7608 76.0983 71.3733 76.0712 70.9942C76.0483 70.6108 76.0066 70.2754 75.9462 69.9858C75.8837 69.6921 75.7962 69.4942 75.6796 69.3942Z" fill="#5E17EB"/>
</svg>
