<svg width="200" height="200" viewBox="0 0 200 200" fill="none" xmlns="http://www.w3.org/2000/svg">
<rect width="200" height="200" fill="#5E17EB"/>
<mask id="mask0_10_226" style="mask-type:luminance" maskUnits="userSpaceOnUse" x="30" y="93" width="45" height="29">
<path d="M30.5333 93.2771H74.4437V121.31H30.5333V93.2771Z" fill="white"/>
</mask>
<g mask="url(#mask0_10_226)">
<mask id="mask1_10_226" style="mask-type:luminance" maskUnits="userSpaceOnUse" x="30" y="78" width="45" height="44">
<path d="M30.5333 100C30.5333 111.779 40.0812 121.327 51.8604 121.327H53.1229C64.9021 121.327 74.45 111.779 74.45 100C74.45 88.2208 64.9021 78.6729 53.1229 78.6729H51.8604C40.0812 78.6729 30.5333 88.2208 30.5333 100Z" fill="white"/>
</mask>
<g mask="url(#mask1_10_226)">
<path d="M72.4708 119.235H62.4729V99.3104C63.2083 98.675 63.8979 98.0146 64.4583 97.3041C65.4292 98.5333 66.7854 99.6187 68.1146 100.679C70.1208 102.283 72.4708 103.748 72.4708 105.744V119.235ZM32.5062 119.235V105.744C32.5062 103.969 34.8542 102.283 36.8604 100.679C38.1896 99.6187 39.5458 98.5333 40.5167 97.3041C41.0771 98.0146 41.7646 98.675 42.5042 99.3104V119.235H32.5062ZM64.4583 93.3062C64.2583 94.4458 63.4937 95.4771 62.4729 96.4646C61.8812 97.0354 61.2042 97.5916 60.5 98.1458C57.7042 100.342 54.4729 102.5 54.4729 105.387V119.235H50.5021V105.387C50.5021 102.431 47.2708 100.285 44.475 98.1104C43.7708 97.5625 43.0937 97.0125 42.5042 96.4479C41.4812 95.4708 40.7187 94.4458 40.5167 93.3062C39.7396 97.7187 30.5333 100.512 30.5333 105.387V121.31H44.475V100.919C46.4083 102.429 48.5292 103.848 48.5292 105.744V121.31H56.4458V105.744C56.4458 104.058 58.5667 102.452 60.5 100.921V119.235H60.5062V121.31H74.4437V105.387C74.4437 100.394 65.2354 97.7187 64.4583 93.3062Z" fill="#FFB016"/>
</g>
</g>
<mask id="mask2_10_226" style="mask-type:luminance" maskUnits="userSpaceOnUse" x="42" y="78" width="21" height="20">
<path d="M42.1333 78.6729H62.9333V97.6H42.1333V78.6729Z" fill="white"/>
</mask>
<g mask="url(#mask2_10_226)">
<mask id="mask3_10_226" style="mask-type:luminance" maskUnits="userSpaceOnUse" x="30" y="78" width="45" height="44">
<path d="M30.5333 100C30.5333 111.779 40.0812 121.327 51.8604 121.327H53.1229C64.9021 121.327 74.45 111.779 74.45 100C74.45 88.2208 64.9021 78.6729 53.1229 78.6729H51.8604C40.0812 78.6729 30.5333 88.2208 30.5333 100Z" fill="white"/>
</mask>
<g mask="url(#mask3_10_226)">
<path d="M44.475 91.1229C44.475 89.3479 46.825 87.6604 48.8312 86.0583C50.1604 84.9958 51.5167 83.9125 52.4875 82.6833C53.4583 83.9125 54.8146 84.9958 56.1437 86.0583C58.15 87.6604 60.5 89.1271 60.5 91.1229V97.2375C61.2042 96.6833 61.8812 96.1271 62.4729 95.5562V90.7667C62.4729 85.7729 53.2646 83.0958 52.4875 78.6854C51.7104 83.0958 42.5042 85.8917 42.5042 90.7667V95.5396C43.0937 96.1042 43.7708 96.6542 44.475 97.2021V91.1229Z" fill="#FFB016"/>
</g>
</g>
<path d="M83.4148 116.16H79.2648C79.3919 116.043 79.4919 115.824 79.5648 115.501C79.6356 115.174 79.6835 114.797 79.7064 114.368C79.7335 113.935 79.7523 113.497 79.7648 113.051C79.7752 112.601 79.7773 112.191 79.7731 111.818C79.7669 111.447 79.7648 111.16 79.7648 110.96V101.36C79.7648 101.155 79.7669 100.866 79.7731 100.493C79.7773 100.122 79.7752 99.7137 79.7648 99.2679C79.7523 98.8179 79.7335 98.3804 79.7064 97.9512C79.6835 97.5179 79.6356 97.1408 79.5648 96.8179C79.4919 96.4908 79.3919 96.2679 79.2648 96.1512H83.0648C84.0148 96.1512 84.8898 96.3345 85.6898 96.7012C86.4898 97.0679 87.1314 97.6491 87.6148 98.4429C88.1023 99.2325 88.3481 100.26 88.3481 101.526C88.3481 102.399 88.2064 103.147 87.9231 103.768C87.6439 104.391 87.3106 104.866 86.9231 105.193C86.5398 105.516 86.1939 105.676 85.8898 105.676C86.5939 105.676 87.1814 105.899 87.6481 106.343C88.1148 106.782 88.4669 107.36 88.7064 108.076C88.9502 108.793 89.0731 109.555 89.0731 110.36C89.0731 110.643 89.0502 111.022 89.0064 111.493C88.9606 111.966 88.8481 112.472 88.6648 113.01C88.4814 113.549 88.1856 114.06 87.7814 114.543C87.3752 115.022 86.8189 115.41 86.1148 115.71C85.4148 116.01 84.5148 116.16 83.4148 116.16ZM82.9898 107.326V113.376C83.1169 113.376 83.2314 113.376 83.3314 113.376C83.4356 113.376 83.5398 113.376 83.6398 113.376C84.1398 113.376 84.5564 113.239 84.8898 112.96C85.2231 112.676 85.4731 112.307 85.6398 111.851C85.8064 111.397 85.8898 110.914 85.8898 110.401C85.8898 109.341 85.6752 108.564 85.2481 108.068C84.8189 107.574 84.2835 107.326 83.6398 107.326H82.9898ZM83.1648 98.9012H82.9898V104.543H83.1231C83.6502 104.543 84.0606 104.405 84.3564 104.126C84.6502 103.843 84.8564 103.474 84.9731 103.018C85.0939 102.564 85.1564 102.08 85.1564 101.568C85.1564 101.147 85.0939 100.73 84.9731 100.318C84.8564 99.9075 84.6523 99.5679 84.3648 99.3012C84.0752 99.0345 83.6752 98.9012 83.1648 98.9012Z" fill="white"/>
<path d="M91.2064 109.501V102.818C91.2064 101.974 91.2252 101.268 91.2648 100.701C91.3023 100.13 91.3773 99.6345 91.4898 99.2179C91.6064 98.8012 91.7856 98.3929 92.0314 97.9929C92.3918 97.4054 92.8898 96.9179 93.5231 96.5345C94.1564 96.1512 94.9398 95.9595 95.8731 95.9595C96.8231 95.9595 97.6148 96.1512 98.2481 96.5345C98.8814 96.9179 99.3689 97.4054 99.7148 97.9929C99.9585 98.3929 100.136 98.8012 100.248 99.2179C100.365 99.6345 100.442 100.13 100.481 100.701C100.519 101.268 100.54 101.974 100.54 102.818V109.501C100.54 110.347 100.519 111.049 100.481 111.61C100.442 112.172 100.365 112.66 100.248 113.076C100.136 113.493 99.9585 113.907 99.7148 114.318C99.3523 114.907 98.8585 115.393 98.2314 115.776C97.6085 116.16 96.8231 116.351 95.8731 116.351C94.9398 116.351 94.1564 116.16 93.5231 115.776C92.8898 115.393 92.3918 114.907 92.0314 114.318C91.7856 113.907 91.6064 113.493 91.4898 113.076C91.3773 112.66 91.3023 112.172 91.2648 111.61C91.2252 111.049 91.2064 110.347 91.2064 109.501ZM94.4148 101.818V110.493C94.4148 110.805 94.4252 111.132 94.4481 111.476C94.4752 111.822 94.5314 112.149 94.6148 112.46C94.6981 112.766 94.8398 113.016 95.0398 113.21C95.2398 113.399 95.5106 113.493 95.8564 113.493C96.2002 113.493 96.4752 113.399 96.6814 113.21C96.8856 113.016 97.0335 112.766 97.1231 112.46C97.2106 112.149 97.2668 111.822 97.2898 111.476C97.3168 111.132 97.3314 110.805 97.3314 110.493V101.818C97.3314 101.514 97.3168 101.189 97.2898 100.843C97.2668 100.493 97.2106 100.166 97.1231 99.8595C97.0335 99.5554 96.8856 99.3054 96.6814 99.1095C96.4752 98.9158 96.2002 98.8179 95.8564 98.8179C95.5106 98.8179 95.2398 98.9158 95.0398 99.1095C94.8398 99.3054 94.6981 99.5554 94.6148 99.8595C94.5314 100.166 94.4752 100.493 94.4481 100.843C94.4252 101.189 94.4148 101.514 94.4148 101.818Z" fill="white"/>
<path d="M102.9 96.1512H106.642L110.025 108.901C110.025 108.901 110.025 108.743 110.025 108.426C110.025 108.105 110.027 107.685 110.033 107.168C110.037 106.647 110.042 106.089 110.042 105.493C110.042 104.899 110.044 104.316 110.05 103.743C110.06 103.166 110.067 102.664 110.067 102.235C110.067 101.801 110.067 101.501 110.067 101.335C110.067 101.13 110.067 100.843 110.067 100.476C110.067 100.105 110.06 99.6971 110.05 99.2512C110.044 98.8012 110.025 98.3637 109.992 97.9346C109.962 97.5012 109.912 97.1241 109.842 96.8012C109.769 96.4741 109.677 96.2512 109.567 96.1346L113.75 96.1512C113.633 96.2679 113.537 96.4908 113.467 96.8179C113.4 97.1408 113.35 97.5179 113.317 97.9512C113.283 98.3804 113.262 98.8179 113.258 99.2679C113.252 99.7137 113.25 100.122 113.25 100.493C113.25 100.866 113.25 101.155 113.25 101.36V110.96C113.25 111.16 113.25 111.447 113.25 111.818C113.25 112.191 113.252 112.601 113.258 113.051C113.262 113.497 113.283 113.935 113.317 114.368C113.35 114.797 113.4 115.174 113.467 115.501C113.537 115.824 113.633 116.043 113.75 116.16H109.967L106.583 104.085C106.583 104.085 106.583 104.23 106.583 104.518C106.583 104.801 106.583 105.174 106.583 105.635C106.583 106.097 106.585 106.599 106.592 107.143C106.602 107.689 106.608 108.222 106.608 108.743C106.608 109.26 106.608 109.718 106.608 110.118C106.608 110.514 106.608 110.793 106.608 110.96C106.608 111.16 106.602 111.447 106.592 111.818C106.585 112.191 106.585 112.601 106.592 113.051C106.602 113.497 106.621 113.935 106.65 114.368C106.683 114.797 106.735 115.174 106.808 115.501C106.879 115.824 106.971 116.043 107.083 116.16H102.917C103.033 116.043 103.127 115.824 103.2 115.501C103.271 115.174 103.321 114.797 103.35 114.368C103.383 113.935 103.402 113.497 103.408 113.051C103.412 112.601 103.412 112.191 103.408 111.818C103.402 111.447 103.4 111.16 103.4 110.96V101.36C103.4 101.155 103.402 100.866 103.408 100.493C103.412 100.122 103.41 99.7137 103.4 99.2679C103.387 98.8179 103.369 98.3804 103.342 97.9512C103.319 97.5179 103.271 97.1408 103.2 96.8179C103.127 96.4908 103.027 96.2679 102.9 96.1512Z" fill="white"/>
<path d="M119.856 116.16H115.706C115.834 116.043 115.934 115.824 116.006 115.501C116.077 115.174 116.125 114.797 116.148 114.368C116.175 113.935 116.194 113.497 116.206 113.051C116.217 112.601 116.219 112.191 116.215 111.818C116.209 111.447 116.206 111.16 116.206 110.96V101.36C116.206 101.155 116.209 100.866 116.215 100.493C116.219 100.122 116.217 99.7137 116.206 99.2679C116.194 98.8179 116.175 98.3804 116.148 97.9512C116.125 97.5179 116.077 97.1408 116.006 96.8179C115.934 96.4908 115.834 96.2679 115.706 96.1512H119.506C120.456 96.1512 121.331 96.3345 122.131 96.7012C122.931 97.0679 123.573 97.6491 124.056 98.4429C124.544 99.2325 124.79 100.26 124.79 101.526C124.79 102.399 124.648 103.147 124.365 103.768C124.086 104.391 123.752 104.866 123.365 105.193C122.981 105.516 122.636 105.676 122.331 105.676C123.036 105.676 123.623 105.899 124.09 106.343C124.556 106.782 124.909 107.36 125.148 108.076C125.392 108.793 125.515 109.555 125.515 110.36C125.515 110.643 125.492 111.022 125.448 111.493C125.402 111.966 125.29 112.472 125.106 113.01C124.923 113.549 124.627 114.06 124.223 114.543C123.817 115.022 123.261 115.41 122.556 115.71C121.856 116.01 120.956 116.16 119.856 116.16ZM119.431 107.326V113.376C119.559 113.376 119.673 113.376 119.773 113.376C119.877 113.376 119.981 113.376 120.081 113.376C120.581 113.376 120.998 113.239 121.331 112.96C121.665 112.676 121.915 112.307 122.081 111.851C122.248 111.397 122.331 110.914 122.331 110.401C122.331 109.341 122.117 108.564 121.69 108.068C121.261 107.574 120.725 107.326 120.081 107.326H119.431ZM119.606 98.9012H119.431V104.543H119.565C120.092 104.543 120.502 104.405 120.798 104.126C121.092 103.843 121.298 103.474 121.415 103.018C121.536 102.564 121.598 102.08 121.598 101.568C121.598 101.147 121.536 100.73 121.415 100.318C121.298 99.9075 121.094 99.5679 120.806 99.3012C120.517 99.0345 120.117 98.9012 119.606 98.9012Z" fill="white"/>
<path d="M131.665 116.16H126.998C127.202 115.776 127.384 115.289 127.54 114.693C127.7 114.099 127.844 113.485 127.973 112.851C128.1 112.218 128.202 111.657 128.282 111.168C128.536 109.707 128.773 108.364 128.99 107.135C129.211 105.907 129.427 104.722 129.64 103.576C129.85 102.432 130.065 101.257 130.282 100.051C130.498 98.847 130.727 97.547 130.973 96.1512H134.965C135.209 97.547 135.436 98.847 135.648 100.051C135.859 101.257 136.067 102.432 136.273 103.576C136.477 104.722 136.692 105.907 136.915 107.135C137.136 108.364 137.384 109.707 137.657 111.168C137.744 111.657 137.848 112.218 137.965 112.851C138.086 113.485 138.232 114.099 138.398 114.693C138.565 115.289 138.744 115.776 138.94 116.16H134.273C134.45 115.726 134.548 115.26 134.565 114.76C134.586 114.26 134.573 113.751 134.523 113.235C134.473 112.714 134.415 112.222 134.348 111.76H131.59C131.534 112.222 131.477 112.714 131.423 113.235C131.367 113.751 131.348 114.26 131.365 114.76C131.382 115.26 131.482 115.726 131.665 116.16ZM131.932 109.001H134.007L132.965 100.51L131.932 109.001Z" fill="white"/>
<path d="M145.028 116.16H140.361C140.565 115.776 140.747 115.289 140.903 114.693C141.063 114.099 141.207 113.485 141.336 112.851C141.463 112.218 141.565 111.657 141.645 111.168C141.899 109.707 142.136 108.364 142.353 107.135C142.574 105.907 142.79 104.722 143.003 103.576C143.213 102.432 143.428 101.257 143.645 100.051C143.861 98.847 144.09 97.547 144.336 96.1512H148.328C148.572 97.547 148.799 98.847 149.011 100.051C149.222 101.257 149.43 102.432 149.636 103.576C149.84 104.722 150.055 105.907 150.278 107.135C150.499 108.364 150.747 109.707 151.02 111.168C151.107 111.657 151.211 112.218 151.328 112.851C151.449 113.485 151.595 114.099 151.761 114.693C151.928 115.289 152.107 115.776 152.303 116.16H147.636C147.813 115.726 147.911 115.26 147.928 114.76C147.949 114.26 147.936 113.751 147.886 113.235C147.836 112.714 147.778 112.222 147.711 111.76H144.953C144.897 112.222 144.84 112.714 144.786 113.235C144.73 113.751 144.711 114.26 144.728 114.76C144.745 115.26 144.845 115.726 145.028 116.16ZM145.295 109.001H147.37L146.328 100.51L145.295 109.001Z" fill="white"/>
<path d="M153.991 96.1512H157.733L161.116 108.901C161.116 108.901 161.116 108.743 161.116 108.426C161.116 108.105 161.118 107.685 161.125 107.168C161.129 106.647 161.133 106.089 161.133 105.493C161.133 104.899 161.135 104.316 161.141 103.743C161.152 103.166 161.158 102.664 161.158 102.235C161.158 101.801 161.158 101.501 161.158 101.335C161.158 101.13 161.158 100.843 161.158 100.476C161.158 100.105 161.152 99.6971 161.141 99.2512C161.135 98.8012 161.116 98.3637 161.083 97.9346C161.054 97.5012 161.004 97.1241 160.933 96.8012C160.86 96.4741 160.768 96.2512 160.658 96.1346L164.841 96.1512C164.725 96.2679 164.629 96.4908 164.558 96.8179C164.491 97.1408 164.441 97.5179 164.408 97.9512C164.375 98.3804 164.354 98.8179 164.35 99.2679C164.343 99.7137 164.341 100.122 164.341 100.493C164.341 100.866 164.341 101.155 164.341 101.36V110.96C164.341 111.16 164.341 111.447 164.341 111.818C164.341 112.191 164.343 112.601 164.35 113.051C164.354 113.497 164.375 113.935 164.408 114.368C164.441 114.797 164.491 115.174 164.558 115.501C164.629 115.824 164.725 116.043 164.841 116.16H161.058L157.675 104.085C157.675 104.085 157.675 104.23 157.675 104.518C157.675 104.801 157.675 105.174 157.675 105.635C157.675 106.097 157.677 106.599 157.683 107.143C157.693 107.689 157.7 108.222 157.7 108.743C157.7 109.26 157.7 109.718 157.7 110.118C157.7 110.514 157.7 110.793 157.7 110.96C157.7 111.16 157.693 111.447 157.683 111.818C157.677 112.191 157.677 112.601 157.683 113.051C157.693 113.497 157.712 113.935 157.741 114.368C157.775 114.797 157.827 115.174 157.9 115.501C157.97 115.824 158.062 116.043 158.175 116.16H154.008C154.125 116.043 154.218 115.824 154.291 115.501C154.362 115.174 154.412 114.797 154.441 114.368C154.475 113.935 154.493 113.497 154.5 113.051C154.504 112.601 154.504 112.191 154.5 111.818C154.493 111.447 154.491 111.16 154.491 110.96V101.36C154.491 101.155 154.493 100.866 154.5 100.493C154.504 100.122 154.502 99.7137 154.491 99.2679C154.479 98.8179 154.46 98.3804 154.433 97.9512C154.41 97.5179 154.362 97.1408 154.291 96.8179C154.218 96.4908 154.118 96.2679 153.991 96.1512Z" fill="white"/>
<path d="M78.2875 120.727H165.567" stroke="#FFB016" stroke-width="3"/>
<path d="M168.867 120.727L167.067 118.927L165.267 120.727L167.067 122.527L168.867 120.727Z" stroke="#FFB016" stroke-width="3" stroke-linecap="round" stroke-linejoin="round"/>
</svg>
